<?xml version="1.0" encoding="UTF-8"?>
<!DOCTYPE svg PUBLIC "-//W3C//DTD SVG 1.1//EN" "http://www.w3.org/Graphics/SVG/1.1/DTD/svg11.dtd">
<!-- Creator: CorelDRAW X8 -->
<svg xmlns="http://www.w3.org/2000/svg" xml:space="preserve" width="210mm" height="297mm" version="1.1" style="shape-rendering:geometricPrecision; text-rendering:geometricPrecision; image-rendering:optimizeQuality; fill-rule:evenodd; clip-rule:evenodd"
viewBox="0 0 21000 29700"
 xmlns:xlink="http://www.w3.org/1999/xlink">
 <defs>
  <style type="text/css">
   <![CDATA[
    .str0 {stroke:#FEFEFE;stroke-width:20}
    .str1 {stroke:#373435;stroke-width:20}
    .fil8 {fill:none}
    .fil7 {fill:#FEFEFE}
    .fil3 {fill:#FFF212}
    .fil5 {fill:#2F2E43}
    .fil1 {fill:#6C63FF}
    .fil6 {fill:#CCCCCC}
    .fil0 {fill:#E2E3E4}
    .fil4 {fill:#F3A3A6}
    .fil2 {fill:url(#id0)}
   ]]>
  </style>
  <linearGradient id="id0" gradientUnits="userSpaceOnUse" x1="18600.4" y1="11951.1" x2="10345.4" y2="11997.7">
   <stop offset="0" style="stop-opacity:1; stop-color:#00A859"/>
   <stop offset="1" style="stop-opacity:1; stop-color:#B1D9A4"/>
  </linearGradient>
 </defs>
 <g id="Camada_x0020_1">
  <metadata id="CorelCorpID_0Corel-Layer"/>
  <path class="fil0" d="M17035 8034l-5419 0c-207,0 -375,-168 -375,-375 0,-206 168,-375 375,-375l5419 0c207,0 375,169 375,375 0,207 -168,375 -375,375l0 0zm-5419 -703c-181,0 -329,147 -329,328 0,181 148,329 329,329l5419 0c181,0 328,-148 328,-329 0,-181 -147,-328 -328,-328l-5419 0z"/>
  <path class="fil1" d="M17035 12421l-5419 0c-201,0 -363,-163 -363,-363 0,-201 162,-364 363,-364l5419 0c200,0 363,163 363,364 0,200 -163,363 -363,363l0 0z"/>
  <path class="fil0" d="M15259 6556l-3732 0c-201,0 -364,-163 -364,-363 0,-201 163,-363 364,-363l3732 0c200,0 363,162 363,363 0,200 -163,363 -363,363z"/>
  <path class="fil0" d="M17035 9500l-5419 0c-207,0 -375,-168 -375,-375 0,-206 168,-375 375,-375l5419 0c207,0 375,169 375,375 0,207 -168,375 -375,375l0 0zm-5419 -703c-181,0 -329,147 -329,328 0,181 148,329 329,329l5419 0c181,0 328,-148 328,-329 0,-181 -147,-328 -328,-328l-5419 0z"/>
  <path class="fil0" d="M17035 10966l-5419 0c-207,0 -375,-168 -375,-374 0,-207 168,-375 375,-375l5419 0c207,0 375,168 375,375 0,206 -168,374 -375,374l0 0zm-5419 -703c-181,0 -329,147 -329,329 0,181 148,328 329,328l5419 0c181,0 328,-147 328,-328 0,-182 -147,-329 -328,-329l-5419 0z"/>
  <path class="fil0" d="M11430 7015l1420 0c34,0 61,27 61,62l0 0c0,33 -27,61 -61,61l-1420 0c-34,0 -62,-27 -62,-61l0 0c0,-34 28,-62 62,-62z"/>
  <path class="fil0" d="M11430 8516l1420 0c34,0 61,27 61,61l0 0c0,34 -27,62 -61,62l-1420 0c-34,0 -62,-28 -62,-62l0 0c0,-33 28,-61 62,-61z"/>
  <path class="fil0" d="M11430 10017l1420 0c34,0 61,27 61,61l0 0c0,34 -27,62 -61,62l-1420 0c-34,0 -62,-28 -62,-62l0 0c0,-34 28,-61 62,-61z"/>
  <rect class="fil2" x="11256" y="11641" width="6142" height="833" rx="297" ry="312"/>
  <rect class="fil3" x="11397" y="10014" width="1742" height="137" rx="84" ry="51"/>
  <rect class="fil3" x="11386" y="8501" width="1742" height="137" rx="84" ry="51"/>
  <rect class="fil3" x="11366" y="6996" width="1742" height="137" rx="84" ry="51"/>
  <polygon class="fil4" points="5443,6707 6131,6933 6131,5943 5507,5943 "/>
  <circle class="fil4" cx="6046" cy="5531" r="686"/>
  <path class="fil5" d="M5872 5585l94 114 171 -299c0,0 218,12 218,-151 0,-162 200,-166 200,-166 0,0 284,-495 -303,-365 0,0 -407,-279 -610,-40 0,0 -621,313 -443,857l295 561 67 -127c0,0 -41,-533 311,-384l0 0z"/>
  <rect class="fil4" x="5320" y="16106" width="554" height="786"/>
  <path class="fil5" d="M5812 17342c-95,9 -569,46 -592,-63 -22,-99 10,-204 14,-218 46,-453 63,-458 73,-461 16,-5 63,17 140,67l5 3 1 5c1,7 35,174 195,148 110,-17 146,-42 158,-53 -10,-5 -21,-12 -30,-25 -11,-18 -14,-42 -6,-71 21,-75 83,-187 86,-191l7 -13 629 425 389 111c30,9 53,30 65,58l0 0c17,39 7,84 -25,113 -71,63 -211,172 -358,186 -40,3 -91,5 -150,5 -243,0 -598,-25 -601,-26l0 0z"/>
  <rect class="fil4" transform="matrix(-0.770513 -0.637423 0.637423 -0.770513 4005.95 15871.8)" width="554" height="786"/>
  <path class="fil5" d="M3672 16180c-79,-54 -467,-327 -417,-426 47,-91 138,-151 151,-159 324,-320 340,-313 350,-309 16,7 38,54 65,141l2 5 -3 5c-3,6 -83,156 56,239 96,56 139,61 156,59 -5,-10 -9,-23 -7,-38 2,-22 16,-42 40,-59 64,-44 183,-91 188,-93l13 -5 215 729 228 333c18,25 23,57 14,86l0 0c-13,41 -49,69 -92,71 -95,4 -272,-2 -394,-85 -33,-22 -74,-54 -118,-91 -188,-155 -445,-401 -447,-403l0 0z"/>
  <polygon class="fil5" points="6725,10031 4824,10031 5246,16313 5880,16313 6724,10031 "/>
  <polygon class="fil5" points="6337,10377 6725,10031 6531,13486 4367,15545 3827,15099 5088,13462 "/>
  <path class="fil6" d="M6337 6335l-938 -152 -292 510c-370,647 -521,1398 -430,2139l147 1199 1901 0 -388 -3696 0 0z"/>
  <path id="uuid-99d9dcd2-0d7a-40b6-9a0d-34cb87d0e46e-156" class="fil4" d="M10169 6315c174,-94 364,-78 426,37 61,115 -30,285 -204,380 -69,39 -146,60 -225,61l-740 392 -180 -366 749 -347c45,-67 105,-120 175,-157 0,0 0,0 0,0l-1 0z"/>
  <path class="fil6" d="M9987 7049l-1699 897 -2 0 -1892 104c-290,16 -547,-188 -596,-474 -31,-175 20,-351 139,-482 120,-132 290,-200 467,-188l1623 118 1748 -401 213 426 -1 0z"/>
  <path id="uuid-a4afb0c5-058d-48cc-8cb0-c7ababe8c53e-155" class="fil4" d="M6004 11474c45,193 -22,372 -150,400 -127,28 -266,-106 -311,-298 -19,-77 -19,-157 1,-234l-179 -819 401 -74 133 814c52,61 88,133 105,211 0,0 0,0 0,0l0 0z"/>
  <path class="fil6" d="M5482 11231l-469 -1862 1 -3 347 -1863c53,-286 312,-486 601,-467 177,12 336,103 436,250 100,147 126,328 71,497l-498 1549 -24 1794 -465 105 0 0z"/>
  <path class="fil5" d="M2726 17480c0,18 14,32 32,32l14162 0c17,0 31,-14 31,-32 0,-17 -14,-31 -31,-31l-14162 0c-18,0 -32,14 -32,31l0 0z"/>
  <path class="fil7 str0" d="M5955 5159l822 0c0,-391 -368,-708 -822,-708 -453,0 -821,317 -821,708 0,83 17,166 51,245l770 -245z"/>
  <polygon class="fil7" points="6676,4865 7301,4958 7313,5037 6694,5159 6583,4884 "/>
  <path class="fil7 str0" d="M10455 6205l-2 176 -261 260c-45,48 -81,132 -31,198l720 7c72,-49 87,-124 11,-203l-281 -258 -7 -178 50 -3 4 -86 -261 -2 5 89 53 0z"/>
  <line class="fil8 str1" x1="10529" y1="6792" x2="10532" y2= "6263" />
  <path class="fil8 str1" d="M10503 6314c36,-12 37,-6 52,-11"/>
  <path class="fil8 str1" d="M10517 6380c10,1 20,-6 31,-6"/>
  <path class="fil8 str1" d="M10507 6431c12,0 24,0 38,0"/>
  <path class="fil8 str1" d="M10499 6490c10,3 37,4 49,4"/>
  <path class="fil8 str1" d="M10504 6555c9,2 42,6 49,0"/>
  <path class="fil8 str1" d="M10508 6628c9,3 36,1 48,1"/>
  <path class="fil8 str1" d="M10506 6694c15,0 30,0 45,0"/>
  <path class="fil8 str1" d="M10517 6773c9,3 23,2 32,2"/>
 </g>
</svg>
